# Unity AI Starter Catalog - CC0 1.0
o StarterVehicleBody
v -1.2 0.35 -0.7
v 1.2 0.35 -0.7
v 1.2 0.75 -0.7
v -1.2 0.75 -0.7
v -1.2 0.35 0.7
v 1.2 0.35 0.7
v 1.2 0.75 0.7
v -1.2 0.75 0.7
f 1 2 3 4
f 5 8 7 6
f 1 5 6 2
f 2 6 7 3
f 3 7 8 4
f 5 1 4 8
o StarterVehicleCabin
v -0.45 0.75 -0.35
v 0.45 0.75 -0.35
v 0.45 1.25 -0.35
v -0.45 1.25 -0.35
v -0.45 0.75 0.45
v 0.45 0.75 0.45
v 0.45 1.25 0.45
v -0.45 1.25 0.45
f 9 10 11 12
f 13 16 15 14
f 9 13 14 10
f 10 14 15 11
f 11 15 16 12
f 13 9 12 16
o StarterVehicleWheelFL
v -0.9 0.05 -0.85
v -0.45 0.05 -0.85
v -0.45 0.5 -0.85
v -0.9 0.5 -0.85
v -0.9 0.05 -0.65
v -0.45 0.05 -0.65
v -0.45 0.5 -0.65
v -0.9 0.5 -0.65
f 17 18 19 20
f 21 24 23 22
f 17 21 22 18
f 18 22 23 19
f 19 23 24 20
f 21 17 20 24
o StarterVehicleWheelFR
v 0.45 0.05 -0.85
v 0.9 0.05 -0.85
v 0.9 0.5 -0.85
v 0.45 0.5 -0.85
v 0.45 0.05 -0.65
v 0.9 0.05 -0.65
v 0.9 0.5 -0.65
v 0.45 0.5 -0.65
f 25 26 27 28
f 29 32 31 30
f 25 29 30 26
f 26 30 31 27
f 27 31 32 28
f 29 25 28 32
o StarterVehicleWheelBL
v -0.9 0.05 0.65
v -0.45 0.05 0.65
v -0.45 0.5 0.65
v -0.9 0.5 0.65
v -0.9 0.05 0.85
v -0.45 0.05 0.85
v -0.45 0.5 0.85
v -0.9 0.5 0.85
f 33 34 35 36
f 37 40 39 38
f 33 37 38 34
f 34 38 39 35
f 35 39 40 36
f 37 33 36 40
o StarterVehicleWheelBR
v 0.45 0.05 0.65
v 0.9 0.05 0.65
v 0.9 0.5 0.65
v 0.45 0.5 0.65
v 0.45 0.05 0.85
v 0.9 0.05 0.85
v 0.9 0.5 0.85
v 0.45 0.5 0.85
f 41 42 43 44
f 45 48 47 46
f 41 45 46 42
f 42 46 47 43
f 43 47 48 44
f 45 41 44 48
